<svg width="25" height="25" viewBox="0 0 25 25" fill="none" xmlns="http://www.w3.org/2000/svg">
<g clip-path="url(#clip0_846_8)">
<path d="M24.4428 5.62137C23.6078 5.99137 22.7108 6.24137 21.7678 6.35437C22.7408 5.77217 23.4688 4.85584 23.8158 3.77637C22.9017 4.31936 21.9012 4.70157 20.8578 4.90637C20.1562 4.15724 19.2269 3.6607 18.2141 3.49385C17.2014 3.32699 16.1619 3.49916 15.2571 3.98363C14.3522 4.46809 13.6326 5.23773 13.21 6.17308C12.7873 7.10842 12.6854 8.15712 12.9198 9.15637C11.0675 9.06337 9.25544 8.58192 7.60124 7.74328C5.94704 6.90463 4.48766 5.72753 3.31782 4.28837C2.91782 4.97837 2.68782 5.77837 2.68782 6.63037C2.68737 7.39737 2.87625 8.15262 3.23769 8.8291C3.59914 9.50559 4.12198 10.0824 4.75982 10.5084C4.02009 10.4848 3.29669 10.285 2.64982 9.92537V9.98537C2.64974 11.0611 3.02185 12.1038 3.703 12.9364C4.38415 13.769 5.33239 14.3403 6.38682 14.5534C5.7006 14.7391 4.98115 14.7664 4.28282 14.6334C4.58031 15.559 5.15981 16.3684 5.94018 16.9483C6.72056 17.5282 7.66273 17.8496 8.63482 17.8674C6.98465 19.1628 4.9467 19.8655 2.84882 19.8624C2.4772 19.8625 2.10589 19.8408 1.73682 19.7974C3.86629 21.1665 6.34516 21.8932 8.87682 21.8904C17.4468 21.8904 22.1318 14.7924 22.1318 8.63637C22.1318 8.43637 22.1268 8.23437 22.1178 8.03437C23.0291 7.37535 23.8157 6.55927 24.4408 5.62437L24.4428 5.62137Z" fill="white"/>
</g>
<defs>
<clipPath id="clip0_846_8">
<rect width="24" height="24" fill="white" transform="translate(0.799805 0.684372)"/>
</clipPath>
</defs>
</svg>
