<svg width="25" height="25" viewBox="0 0 25 25" fill="none" xmlns="http://www.w3.org/2000/svg">
<g clip-path="url(#clip0_846_16)">
<path d="M20.9166 5.17637C19.3866 4.48637 17.7466 3.97637 16.0316 3.68637C16.0163 3.68344 16.0005 3.68533 15.9864 3.69178C15.9722 3.69823 15.9604 3.70892 15.9526 3.72237C15.7426 4.09137 15.5086 4.57237 15.3446 4.95237C13.5257 4.68061 11.6765 4.68061 9.8576 4.95237C9.67494 4.53123 9.46895 4.12059 9.2406 3.72237C9.23286 3.70875 9.22115 3.69782 9.20704 3.69103C9.19292 3.68424 9.17707 3.68192 9.1616 3.68437C7.4476 3.97437 5.8076 4.48437 4.2766 5.17537C4.26343 5.18089 4.25226 5.19031 4.2446 5.20237C1.1326 9.77737 0.279602 14.2394 0.698602 18.6454C0.699768 18.6562 0.703117 18.6666 0.708447 18.6761C0.713776 18.6855 0.720974 18.6938 0.729602 18.7004C2.54599 20.0228 4.57194 21.0302 6.7226 21.6804C6.73759 21.685 6.75363 21.685 6.76861 21.6803C6.7836 21.6757 6.79684 21.6666 6.8066 21.6544C7.2686 21.0344 7.6806 20.3794 8.0326 19.6914C8.0536 19.6514 8.0336 19.6034 7.9916 19.5874C7.34561 19.3441 6.71969 19.0505 6.1196 18.7094C6.10882 18.7032 6.09973 18.6945 6.09316 18.6839C6.08658 18.6734 6.08273 18.6614 6.08193 18.649C6.08114 18.6366 6.08344 18.6242 6.08862 18.613C6.09379 18.6017 6.10169 18.5918 6.1116 18.5844C6.2376 18.4914 6.3636 18.3944 6.4836 18.2974C6.4944 18.2886 6.50741 18.2831 6.52119 18.2813C6.53496 18.2796 6.54895 18.2817 6.5616 18.2874C10.4886 20.0514 14.7416 20.0514 18.6226 18.2874C18.6353 18.2813 18.6494 18.2789 18.6634 18.2805C18.6774 18.2821 18.6906 18.2876 18.7016 18.2964C18.8216 18.3944 18.9466 18.4914 19.0736 18.5844C19.0836 18.5917 19.0916 18.6014 19.097 18.6126C19.1023 18.6238 19.1048 18.6361 19.1042 18.6485C19.1036 18.6609 19.1 18.6729 19.0936 18.6835C19.0872 18.6942 19.0783 18.703 19.0676 18.7094C18.4696 19.0534 17.8476 19.3444 17.1946 19.5864C17.1846 19.59 17.1754 19.5957 17.1678 19.6032C17.1602 19.6107 17.1542 19.6196 17.1503 19.6296C17.1465 19.6395 17.1447 19.6502 17.1453 19.6608C17.1459 19.6715 17.1487 19.6819 17.1536 19.6914C17.5136 20.3784 17.9256 21.0324 18.3786 21.6534C18.388 21.6661 18.4011 21.6756 18.4162 21.6806C18.4312 21.6857 18.4474 21.6859 18.4626 21.6814C20.617 21.033 22.6462 20.0251 24.4646 18.7004C24.4735 18.6942 24.4809 18.6861 24.4864 18.6768C24.492 18.6675 24.4954 18.6571 24.4966 18.6464C24.9966 13.5524 23.6586 9.12637 20.9476 5.20437C20.941 5.19162 20.93 5.18169 20.9166 5.17637ZM8.6196 15.9624C7.4376 15.9624 6.4626 14.8934 6.4626 13.5824C6.4626 12.2704 7.4186 11.2024 8.6196 11.2024C9.8296 11.2024 10.7956 12.2794 10.7766 13.5824C10.7766 14.8944 9.8206 15.9624 8.6196 15.9624ZM16.5946 15.9624C15.4116 15.9624 14.4376 14.8934 14.4376 13.5824C14.4376 12.2704 15.3926 11.2024 16.5946 11.2024C17.8046 11.2024 18.7706 12.2794 18.7516 13.5824C18.7516 14.8944 17.8056 15.9624 16.5946 15.9624Z" fill="white"/>
</g>
<defs>
<clipPath id="clip0_846_16">
<rect width="24" height="24" fill="white" transform="translate(0.599609 0.684372)"/>
</clipPath>
</defs>
</svg>
