<svg width="24" height="25" viewBox="0 0 24 25" fill="none" xmlns="http://www.w3.org/2000/svg">
<g clip-path="url(#clip0_846_11)">
<path fill-rule="evenodd" clip-rule="evenodd" d="M11.9995 0.684372C5.36951 0.684372 -0.000488281 6.05437 -0.000488281 12.6844C-0.000488281 17.9944 3.43451 22.4794 8.20451 24.0694C8.80451 24.1744 9.02951 23.8144 9.02951 23.4994C9.02951 23.2144 9.01451 22.2694 9.01451 21.2644C5.99951 21.8194 5.21951 20.5294 4.97951 19.8544C4.84451 19.5094 4.25951 18.4444 3.74951 18.1594C3.32951 17.9344 2.72951 17.3794 3.73451 17.3644C4.67951 17.3494 5.35451 18.2344 5.57951 18.5944C6.65951 20.4094 8.38451 19.8994 9.07451 19.5844C9.17951 18.8044 9.49451 18.2794 9.83951 17.9794C7.16951 17.6794 4.37951 16.6444 4.37951 12.0544C4.37951 10.7494 4.84451 9.66937 5.60951 8.82937C5.48951 8.52937 5.06951 7.29937 5.72951 5.64937C5.72951 5.64937 6.73451 5.33437 9.02951 6.87937C9.98951 6.60937 11.0095 6.47437 12.0295 6.47437C13.0495 6.47437 14.0695 6.60937 15.0295 6.87937C17.3245 5.31937 18.3295 5.64937 18.3295 5.64937C18.9895 7.29937 18.5695 8.52937 18.4495 8.82937C19.2145 9.66937 19.6795 10.7344 19.6795 12.0544C19.6795 16.6594 16.8745 17.6794 14.2045 17.9794C14.6395 18.3544 15.0145 19.0744 15.0145 20.1994C15.0145 21.8044 14.9995 23.0944 14.9995 23.4994C14.9995 23.8144 15.2245 24.1894 15.8245 24.0694C18.2067 23.2651 20.2767 21.7341 21.7432 19.6917C23.2097 17.6494 23.9988 15.1987 23.9995 12.6844C23.9995 6.05437 18.6295 0.684372 11.9995 0.684372Z" fill="white"/>
</g>
<defs>
<clipPath id="clip0_846_11">
<rect width="24" height="24" fill="white" transform="translate(-0.000488281 0.684372)"/>
</clipPath>
</defs>
</svg>
