<svg width="24" height="25" viewBox="0 0 24 25" fill="none" xmlns="http://www.w3.org/2000/svg">
<path d="M12.0001 9.56015C10.2798 9.56015 8.87589 10.9641 8.87589 12.6844C8.87589 14.4047 10.2798 15.8086 12.0001 15.8086C13.7204 15.8086 15.1243 14.4047 15.1243 12.6844C15.1243 10.9641 13.7204 9.56015 12.0001 9.56015ZM21.3704 12.6844C21.3704 11.3906 21.3821 10.1086 21.3095 8.81718C21.2368 7.31718 20.8946 5.98593 19.7978 4.88906C18.6985 3.78984 17.3696 3.45 15.8696 3.37734C14.5759 3.30468 13.2939 3.3164 12.0025 3.3164C10.7087 3.3164 9.42667 3.30468 8.13527 3.37734C6.63527 3.45 5.30402 3.79218 4.20714 4.88906C3.10792 5.98828 2.76808 7.31718 2.69542 8.81718C2.62277 10.1109 2.63449 11.393 2.63449 12.6844C2.63449 13.9758 2.62277 15.2602 2.69542 16.5516C2.76808 18.0516 3.11027 19.3828 4.20714 20.4797C5.30636 21.5789 6.63527 21.9187 8.13527 21.9914C9.42902 22.0641 10.711 22.0523 12.0025 22.0523C13.2962 22.0523 14.5782 22.0641 15.8696 21.9914C17.3696 21.9187 18.7009 21.5766 19.7978 20.4797C20.897 19.3805 21.2368 18.0516 21.3095 16.5516C21.3845 15.2602 21.3704 13.9781 21.3704 12.6844ZM12.0001 17.4914C9.33995 17.4914 7.19308 15.3445 7.19308 12.6844C7.19308 10.0242 9.33995 7.87734 12.0001 7.87734C14.6603 7.87734 16.8071 10.0242 16.8071 12.6844C16.8071 15.3445 14.6603 17.4914 12.0001 17.4914ZM17.004 8.80312C16.3829 8.80312 15.8814 8.30156 15.8814 7.68046C15.8814 7.05937 16.3829 6.55781 17.004 6.55781C17.6251 6.55781 18.1267 7.05937 18.1267 7.68046C18.1269 7.82795 18.0979 7.97401 18.0416 8.1103C17.9852 8.2466 17.9025 8.37043 17.7983 8.47471C17.694 8.579 17.5701 8.66169 17.4339 8.71804C17.2976 8.77439 17.1515 8.80331 17.004 8.80312Z" fill="white"/>
</svg>
