<svg width="25" height="25" viewBox="0 0 25 25" fill="none" xmlns="http://www.w3.org/2000/svg">
<path d="M5.58253 7.48136C6.79093 7.48136 7.77053 6.50176 7.77053 5.29336C7.77053 4.08496 6.79093 3.10536 5.58253 3.10536C4.37413 3.10536 3.39453 4.08496 3.39453 5.29336C3.39453 6.50176 4.37413 7.48136 5.58253 7.48136Z" fill="white"/>
<path d="M9.83658 9.13936V21.2784H13.6056V15.2754C13.6056 13.6914 13.9036 12.1574 15.8676 12.1574C17.8046 12.1574 17.8286 13.9684 17.8286 15.3754V21.2794H21.5996V14.6224C21.5996 11.3524 20.8956 8.83936 17.0736 8.83936C15.2386 8.83936 14.0086 9.84636 13.5056 10.7994H13.4546V9.13936H9.83658V9.13936ZM3.69458 9.13936H7.46958V21.2784H3.69458V9.13936Z" fill="white"/>
</svg>
