<svg width="25" height="25" viewBox="0 0 25 25" fill="none" xmlns="http://www.w3.org/2000/svg">
<path d="M20.3597 7.52437C17.4797 3.08437 11.5997 1.76437 7.03969 4.52437C2.59969 7.28437 1.15969 13.2844 4.03969 17.7244L4.27969 18.0844L3.31969 21.6844L6.91969 20.7244L7.27969 20.9644C8.83969 21.8044 10.5197 22.2844 12.1997 22.2844C13.9997 22.2844 15.7997 21.8044 17.3597 20.8444C21.7997 17.9644 23.1197 12.0844 20.3597 7.52437ZM17.8397 16.7644C17.3597 17.4844 16.7597 17.9644 15.9197 18.0844C15.4397 18.0844 14.8397 18.3244 12.4397 17.3644C10.3997 16.4044 8.71969 14.8444 7.51969 13.0444C6.79969 12.2044 6.43969 11.1244 6.31969 10.0444C6.31969 9.08437 6.67969 8.24437 7.27969 7.64437C7.51969 7.40437 7.75969 7.28437 7.99969 7.28437H8.59969C8.83969 7.28437 9.07969 7.28437 9.19969 7.76437C9.43969 8.36437 10.0397 9.80437 10.0397 9.92437C10.1597 10.0444 10.1597 10.2844 10.0397 10.4044C10.1597 10.6444 10.0397 10.8844 9.91969 11.0044C9.79969 11.1244 9.67969 11.3644 9.55969 11.4844C9.31969 11.6044 9.19969 11.8444 9.31969 12.0844C9.79969 12.8044 10.3997 13.5244 10.9997 14.1244C11.7197 14.7244 12.4397 15.2044 13.2797 15.5644C13.5197 15.6844 13.7597 15.6844 13.8797 15.4444C13.9997 15.2044 14.5997 14.6044 14.8397 14.3644C15.0797 14.1244 15.1997 14.1244 15.4397 14.2444L17.3597 15.2044C17.5997 15.3244 17.8397 15.4444 17.9597 15.5644C18.0797 15.9244 18.0797 16.4044 17.8397 16.7644Z" fill="white"/>
</svg>
